<?xml version="1.0" standalone="no"?>
<!DOCTYPE svg PUBLIC "-//W3C//DTD SVG 20010904//EN"
 "http://www.w3.org/TR/2001/REC-SVG-20010904/DTD/svg10.dtd">
<svg version="1.0" xmlns="http://www.w3.org/2000/svg"
 width="512.000000pt" height="512.000000pt" viewBox="0 0 512.000000 512.000000"
 preserveAspectRatio="xMidYMid meet">
<metadata>
Created by potrace 1.14, written by Peter Selinger 2001-2017
</metadata>
<g transform="translate(0.000000,512.000000) scale(0.100000,-0.100000)"
fill="#000000" stroke="none">
<path d="M4120 4069 c-224 -15 -374 -65 -464 -155 -31 -31 -98 -119 -109 -144
-4 -8 -17 -31 -28 -50 -60 -98 -125 -222 -260 -497 -82 -166 -149 -304 -149
-306 0 -3 -24 -56 -53 -118 -30 -63 -96 -208 -147 -324 -51 -115 -99 -216
-106 -224 -11 -12 -18 -4 -44 52 -30 62 -85 314 -104 472 -4 28 -11 75 -16
105 -8 48 -19 114 -35 215 -2 17 -7 41 -9 55 -3 14 -8 43 -11 65 -3 22 -15 82
-26 135 -11 52 -24 115 -29 140 -16 83 -80 281 -112 345 -17 36 -49 84 -72
107 -41 43 -129 92 -183 103 -224 46 -457 26 -589 -51 -62 -35 -63 -63 -3
-121 68 -66 76 -91 54 -161 -14 -48 -313 -649 -427 -862 -19 -36 -75 -141
-123 -235 -48 -93 -95 -183 -105 -200 -10 -16 -46 -84 -81 -150 -204 -388
-460 -803 -606 -983 -66 -82 -69 -122 -12 -163 82 -58 311 -8 499 109 94 58
221 184 287 282 122 184 257 451 495 975 208 459 252 555 254 552 3 -3 17
-139 29 -281 10 -111 48 -418 60 -476 3 -14 8 -41 11 -60 39 -254 148 -608
241 -784 109 -206 252 -340 364 -339 80 0 164 53 220 138 49 73 85 144 417
810 88 176 192 381 231 455 38 74 94 181 123 237 29 57 55 103 58 103 3 0 6
-24 6 -52 3 -124 20 -465 30 -593 5 -66 20 -200 29 -255 3 -14 7 -43 11 -65 9
-61 50 -196 79 -260 56 -128 202 -304 315 -382 160 -109 348 -148 496 -102
153 47 374 250 374 344 0 34 -21 66 -94 143 -121 127 -207 281 -276 492 -62
189 -89 325 -125 635 -25 224 -26 634 -1 1185 2 59 -13 109 -38 122 -31 17
-138 24 -246 17z"/>
</g>
</svg>
